<svg width="600" height="600" viewBox="0 0 600 600" fill="none" xmlns="http://www.w3.org/2000/svg">
<g clip-path="url(#clip0_417_32)">
<path d="M141.472 514.05C132.672 514.05 125.872 511.65 121.072 506.85C116.272 502.05 113.872 495.65 113.872 487.65L112.672 167.85C112.672 151.05 112.272 136.85 111.472 125.25C111.072 113.65 109.472 103.85 106.672 95.8503C137.072 93.0503 178.672 91.6503 231.472 91.6503C287.872 91.6503 330.872 109.45 360.472 145.05C390.472 180.25 405.472 233.05 405.472 303.45C405.472 443.85 348.272 514.05 233.872 514.05H141.472ZM231.472 491.85C271.872 491.85 302.072 477.25 322.072 448.05C342.472 418.85 352.672 371.65 352.672 306.45C352.672 240.85 342.472 192.45 322.072 161.25C301.672 130.05 271.472 114.45 231.472 114.45H160.672L161.272 491.85H231.472Z" fill="black"/>
<path d="M364.446 515.873C315.558 515.873 277.534 497.831 250.374 461.747C223.602 425.663 210.216 374.059 210.216 306.935C210.216 239.423 223.99 187.625 251.538 151.541C279.086 115.457 317.692 97.4146 367.356 97.4146C387.92 97.4146 406.932 100.131 424.392 105.563C442.24 110.607 456.402 117.785 466.878 127.097C477.742 136.021 483.174 145.721 483.174 156.197C483.174 163.569 479.682 169.971 472.698 175.403C465.714 180.835 456.596 182.969 445.344 181.805C442.24 161.629 433.898 146.109 420.318 135.245C407.126 124.381 389.666 118.949 367.938 118.949C333.018 118.949 306.634 134.857 288.786 166.673C270.938 198.101 262.014 244.855 262.014 306.935C262.014 368.627 270.938 415.381 288.786 447.197C306.634 478.625 332.63 494.339 366.774 494.339C388.502 494.339 407.514 487.743 423.81 474.551C440.106 461.359 450.582 442.929 455.238 419.261L462.222 418.679C471.146 418.679 478.712 420.813 484.92 425.081C491.128 428.961 494.232 434.781 494.232 442.541C494.232 455.345 488.024 467.373 475.608 478.625C463.58 489.877 447.478 498.995 427.302 505.979C407.514 512.575 386.562 515.873 364.446 515.873Z" fill="black"/>
</g>
<defs>
<clipPath id="clip0_417_32">
<rect width="600" height="600" fill="white"/>
</clipPath>
</defs>
</svg>
